<svg xmlns="http://www.w3.org/2000/svg" version="1.1" xmlns:xlink="http://www.w3.org/1999/xlink" xmlns:svgjs="http://svgjs.dev/svgjs" width="2000" height="949" viewBox="0 0 2000 949"><g transform="matrix(1,0,0,1,-1.2121212121212466,-1.9843072568381785)"><svg viewBox="0 0 396 188" data-background-color="#fff4f9" preserveAspectRatio="xMidYMid meet" height="949" width="2000" xmlns="http://www.w3.org/2000/svg" xmlns:xlink="http://www.w3.org/1999/xlink"><g id="tight-bounds" transform="matrix(1,0,0,1,0.2400000000000091,0.39309774951061627)"><svg viewBox="0 0 395.52 187.21380450097877" height="187.21380450097877" width="395.52"><g><svg viewBox="0 0 670.5322613709388 317.3869733310532" height="187.21380450097877" width="395.52"><g transform="matrix(1,0,0,1,273.034661370939,73.21823616846648)"><svg viewBox="0 0 397.4975999999999 170.95050099412023" height="170.95050099412023" width="397.4975999999999"><g id="textblocktransform"><svg viewBox="0 0 397.4975999999999 170.95050099412023" height="170.95050099412023" width="397.4975999999999" id="textblock"><g><rect width="397.4975999999999" height="10.459597226098715" x="0" y="128.30596316235915" fill="#5b78df" opacity="1" stroke-width="0" stroke="transparent" fill-opacity="1" class="rect-yte-0" data-fill-palette-color="primary" rx="1%" id="yte-0" data-palette-color="#5b78df"></rect></g><g transform="matrix(1,0,0,1,0.9887999999999693,0)"><svg viewBox="0 0 395.52 115.98444810543657" height="115.98444810543657" width="395.52"><g transform="matrix(1,0,0,1,0,0)"><svg width="395.52" viewBox="3.37 -34.4 118.53999999999999 34.769999999999996" height="115.98444810543657" data-palette-color="#5b78df"><path d="M7.81-32.08L7.81-3.74 20.19-3.74 20.19 0 3.37 0 3.37-32.08 7.81-32.08ZM24.07-23.88L28.37-23.88 28.37-8.67Q28.37-5.98 29.58-4.5 30.78-3.03 33.25-3.03L33.25-3.03Q35.08-3.03 36.66-3.89 38.23-4.76 39.57-6.27L39.57-6.27 39.57-23.88 43.87-23.88 43.87 0 41.28 0Q40.84 0 40.55-0.21 40.26-0.42 40.21-0.88L40.21-0.88 39.82-3.42Q38.28-1.71 36.39-0.67 34.49 0.37 32 0.37L32 0.37Q30.05 0.37 28.57-0.28 27.1-0.93 26.1-2.11 25.1-3.3 24.58-4.97 24.07-6.64 24.07-8.67L24.07-8.67 24.07-23.88ZM55.17 0L50.87 0 50.87-23.88 53.41-23.88Q53.9-23.88 54.18-23.67 54.46-23.46 54.51-23L54.51-23 54.88-20.56Q55.56-21.36 56.31-22.03 57.05-22.71 57.91-23.21 58.76-23.71 59.74-23.97 60.71-24.24 61.81-24.24L61.81-24.24Q64.28-24.24 65.83-22.9 67.38-21.56 68.04-19.29L68.04-19.29Q68.55-20.61 69.39-21.53 70.23-22.46 71.26-23.07 72.29-23.68 73.46-23.96 74.63-24.24 75.85-24.24L75.85-24.24Q79.76-24.24 81.89-21.9 84.03-19.56 84.03-15.21L84.03-15.21 84.03 0 79.73 0 79.73-15.21Q79.73-17.99 78.46-19.42 77.19-20.85 74.82-20.85L74.82-20.85Q73.75-20.85 72.8-20.5 71.85-20.14 71.13-19.42 70.41-18.7 69.98-17.65 69.55-16.6 69.55-15.21L69.55-15.21 69.55 0 65.25 0 65.25-15.21Q65.25-18.07 64.07-19.46 62.89-20.85 60.59-20.85L60.59-20.85Q59.03-20.85 57.66-20.03 56.29-19.21 55.17-17.77L55.17-17.77 55.17 0ZM89.91 0L89.91 0ZM90.81-23.88L95.11-23.88 95.11 0 90.81 0 90.81-23.88ZM95.94-31.35L95.94-31.35Q95.94-30.74 95.7-30.19 95.45-29.64 95.02-29.24 94.6-28.83 94.05-28.59 93.5-28.34 92.89-28.34L92.89-28.34Q92.28-28.34 91.74-28.59 91.2-28.83 90.8-29.24 90.4-29.64 90.15-30.19 89.91-30.74 89.91-31.35L89.91-31.35Q89.91-31.98 90.15-32.53 90.4-33.08 90.8-33.5 91.2-33.91 91.74-34.16 92.28-34.4 92.89-34.4L92.89-34.4Q93.5-34.4 94.05-34.16 94.6-33.91 95.02-33.5 95.45-33.08 95.7-32.53 95.94-31.98 95.94-31.35ZM106.41 0L102.11 0 102.11-23.88 104.68-23.88Q105.14-23.88 105.43-23.67 105.73-23.46 105.78-23L105.78-23 106.14-20.46Q107.68-22.17 109.58-23.21 111.49-24.24 113.98-24.24L113.98-24.24Q115.93-24.24 117.41-23.6 118.89-22.95 119.89-21.77 120.89-20.58 121.4-18.91 121.91-17.24 121.91-15.21L121.91-15.21 121.91 0 117.62 0 117.62-15.21Q117.62-17.87 116.41-19.36 115.2-20.85 112.73-20.85L112.73-20.85Q110.9-20.85 109.32-19.98 107.73-19.12 106.41-17.58L106.41-17.58 106.41 0Z" opacity="1" transform="matrix(1,0,0,1,0,0)" fill="#5b78df" class="wordmark-text-0" data-fill-palette-color="primary" id="text-0"></path></svg></g></svg></g><g transform="matrix(1,0,0,1,0,151.08707544538044)"><svg viewBox="0 0 232.209792 19.863425548739798" height="19.863425548739798" width="232.209792"><g transform="matrix(1,0,0,1,0,0)"><svg width="232.209792" viewBox="3.8299999999999996 -39.84 607.3 51.95" height="19.863425548739798" data-palette-color="#5b78df"><path d="M4.27-0.37L3.86-9.08Q3.86-9.11 3.85-9.13 3.83-9.16 3.83-9.18L3.83-9.18Q3.83-9.59 4.27-9.59L4.27-9.59Q4.49-9.59 4.76-9.38L4.76-9.38Q6.08-8.13 7.69-7.4 9.3-6.67 11.21-6.67L11.21-6.67Q11.72-6.67 12.38-6.77 13.04-6.88 13.62-7.14 14.21-7.4 14.61-7.81 15.01-8.23 15.01-8.86L15.01-8.86Q15.01-9.57 14.67-10.13 14.33-10.69 13.77-11.08L13.77-11.08Q13.55-11.23 13.11-11.57 12.67-11.91 12.11-12.35 11.55-12.79 10.94-13.29 10.33-13.79 9.78-14.25 9.23-14.7 8.79-15.06 8.35-15.43 8.13-15.63L8.13-15.63Q6.69-16.7 5.85-17.8 5-18.9 4.57-20.09 4.13-21.29 4-22.57 3.88-23.85 3.88-25.29L3.88-25.29Q3.88-27.44 4.91-29.37 5.93-31.3 7.8-32.73 9.67-34.16 12.28-35 14.89-35.84 18.09-35.84L18.09-35.84Q18.48-35.84 19.26-35.75 20.04-35.67 20.98-35.47 21.92-35.28 22.9-34.94 23.88-34.59 24.68-34.06L24.68-34.06Q24.95-33.86 25.11-33.67 25.27-33.47 25.32-33.06L25.32-33.06Q25.44-31.08 25.51-29.16 25.59-27.25 25.71-25.1L25.71-25.1Q25.71-24.68 25.54-24.55 25.37-24.41 25.1-24.41L25.1-24.41Q24.83-24.41 24.68-24.56L24.68-24.56Q23.97-25.27 23.22-25.95 22.46-26.64 21.63-27.16 20.8-27.69 19.86-28 18.92-28.32 17.82-28.32L17.82-28.32Q17.16-28.32 16.5-28.21 15.84-28.1 15.31-27.81 14.77-27.51 14.44-27 14.11-26.49 14.11-25.71L14.11-25.71Q14.11-24.88 14.32-24.27 14.53-23.66 15.36-23.12L15.36-23.12 21.22-19.14Q22.83-17.99 23.83-16.86 24.83-15.72 25.39-14.6 25.95-13.48 26.16-12.39 26.37-11.3 26.37-10.25L26.37-10.25Q26.37-8.54 25.81-7.03 25.24-5.52 24.27-4.24 23.29-2.95 21.98-1.94 20.68-0.93 19.19-0.21 17.7 0.51 16.1 0.89 14.5 1.27 12.96 1.27L12.96 1.27Q11.77 1.27 10.61 1.23 9.45 1.2 8.35 1.04 7.25 0.88 6.23 0.55 5.2 0.22 4.27-0.37L4.27-0.37ZM40.4-17.41L40.33-17.04Q40.18-14.7 40.07-13.23 39.96-11.77 39.89-10.85 39.82-9.94 39.77-9.41 39.72-8.89 39.69-8.42L39.69-8.42Q40.26-6.96 41.35-6.04 42.45-5.13 43.99-5.13L43.99-5.13Q45.33-5.13 46.35-5.97 47.36-6.81 48.03-8.15 48.7-9.5 49.05-11.16 49.39-12.82 49.39-14.45L49.39-14.45Q49.39-15.8 49.16-16.94 48.92-18.09 48.46-18.93 48-19.78 47.3-20.25 46.6-20.73 45.65-20.73L45.65-20.73Q44.87-20.73 44.1-20.42 43.33-20.12 42.62-19.64 41.92-19.17 41.34-18.57 40.77-17.97 40.4-17.41L40.4-17.41ZM40.82-24.19L40.82-24.19Q42.87-25.59 45.11-26.42 47.36-27.25 49.8-27.25L49.8-27.25Q52.1-27.25 53.77-26.31 55.44-25.37 56.54-23.77 57.64-22.17 58.16-20.09 58.69-18.02 58.69-15.75L58.69-15.75Q58.69-13.77 58.3-11.74 57.91-9.72 57.15-7.82 56.39-5.93 55.27-4.27 54.15-2.61 52.7-1.38 51.24-0.15 49.46 0.56 47.68 1.27 45.6 1.27L45.6 1.27Q43.77 1.27 42.1 0.54 40.43-0.2 38.96-1.37L38.96-1.37Q38.96-1.25 38.9-0.48 38.84 0.29 38.74 1.39 38.64 2.49 38.52 3.75 38.4 5 38.3 6.1 38.21 7.2 38.14 7.97 38.08 8.74 38.08 8.86L38.08 8.86Q38.08 9.06 38.1 9.19 38.11 9.33 38.11 9.45L38.11 9.45Q38.11 9.64 37.92 9.78 37.74 9.91 37.11 10.08L37.11 10.08 30.69 11.72Q30.42 11.79 29.98 11.95 29.54 12.11 29.12 12.11L29.12 12.11Q28.78 12.11 28.53 11.94 28.27 11.77 28.27 11.3L28.27 11.3 31.25-24.44Q31.32-25.24 31.43-25.55 31.54-25.85 31.98-25.95L31.98-25.95Q34.2-26.39 36.55-26.84 38.89-27.29 41.11-28L41.11-28Q41.31-28 41.34-27.94 41.38-27.88 41.38-27.76L41.38-27.76Q41.38-27.71 41.37-27.61 41.35-27.51 41.29-27.17 41.23-26.83 41.12-26.14 41.01-25.44 40.82-24.19ZM89.2-27.66L86.69-4.91Q86.66-4.81 86.66-4.72 86.66-4.64 86.66-4.57L86.66-4.57Q86.66-3.96 86.86-3.55 87.06-3.15 87.29-2.89 87.52-2.64 87.71-2.48 87.91-2.32 87.91-2.2L87.91-2.2Q87.91-1.86 87.18-1.56L87.18-1.56 80.61 1.25Q80.59 1.27 80.44 1.27L80.44 1.27Q80.24 1.27 80.05 0.93 79.85 0.59 79.67 0.06 79.49-0.46 79.33-1.06 79.17-1.66 79.05-2.17L79.05-2.17Q77.51-0.39 75.73 0.44 73.95 1.27 72.19 1.27L72.19 1.27Q70.14 1.27 68.18 0.37 66.23-0.54 64.72-2.21 63.2-3.88 62.29-6.25 61.37-8.62 61.37-11.57L61.37-11.57Q61.37-15.06 62.39-17.94 63.4-20.83 65.13-22.9 66.87-24.98 69.17-26.11 71.48-27.25 74.07-27.25L74.07-27.25Q75.9-27.25 77.53-26.5 79.17-25.76 80.63-24.58L80.63-24.58Q80.78-25.32 80.81-25.76 80.83-26.2 80.92-26.44 81-26.68 81.25-26.77 81.49-26.86 82.05-26.9L82.05-26.9Q83.81-27.15 85.55-27.36 87.3-27.56 89.2-27.66L89.2-27.66ZM78.36-6.88L79.39-14.11Q79.63-15.5 79.72-16.74 79.8-17.97 79.85-18.99L79.85-18.99Q79.46-19.29 79.01-19.6 78.56-19.92 78.03-20.2 77.51-20.48 76.94-20.65 76.36-20.83 75.73-20.83L75.73-20.83Q74.41-20.83 73.52-19.97 72.63-19.12 72.08-17.87 71.53-16.63 71.3-15.23 71.06-13.84 71.06-12.77L71.06-12.77Q71.06-8.91 72.08-7.12 73.09-5.32 74.9-5.32L74.9-5.32Q75.63-5.32 76.53-5.74 77.44-6.15 78.36-6.88L78.36-6.88ZM113.71-27.44L112.2-19.87Q111.69-19.92 111.05-19.98 110.42-20.04 109.71-20.04L109.71-20.04Q108.64-20.04 107.52-19.86 106.41-19.68 105.46-19.14 104.51-18.6 103.83-17.66 103.14-16.72 102.95-15.23L102.95-15.23Q102.78-13.43 102.67-12.27 102.56-11.11 102.51-10.36 102.46-9.62 102.42-9.17 102.39-8.72 102.36-8.33L102.36-8.33Q102.36-8.23 102.32-7.79 102.29-7.35 102.21-6.76 102.14-6.18 102.08-5.49 102.02-4.81 101.95-4.22 101.87-3.64 101.84-3.2 101.8-2.76 101.8-2.66L101.8-2.66Q101.8-2.47 101.81-2.33 101.82-2.2 101.82-2.08L101.82-2.08Q101.82-1.88 101.64-1.75 101.46-1.61 100.82-1.44L100.82-1.44 94.35 0.88Q94.08 0.98 93.64 1.12 93.21 1.27 92.79 1.27L92.79 1.27Q92.45 1.27 92.19 1.1 91.94 0.93 91.94 0.51L91.94 0.51 94.04-23.68Q94.11-24.49 94.22-24.79 94.33-25.1 94.77-25.2L94.77-25.2Q96.99-25.63 99.36-26.09 101.73-26.54 103.95-27.25L103.95-27.25Q104.14-27.25 104.18-27.19 104.22-27.12 104.22-27L104.22-27Q104.22-26.95 104.2-26.86 104.19-26.76 104.13-26.42 104.07-26.07 103.96-25.38 103.85-24.68 103.65-23.44L103.65-23.44Q104.78-24.32 106.13-25.05 107.49-25.78 108.85-26.31 110.22-26.83 111.49-27.14 112.76-27.44 113.71-27.44L113.71-27.44ZM127.46-37.06L127.46-37.06 126.58-28.59Q126.41-26.88 126.22-25.12 126.04-23.36 125.87-21.75 125.7-20.14 125.55-18.77 125.41-17.41 125.31-16.53L125.31-16.53 126.99-18.38 129.73-21.58Q130.24-22.17 130.73-22.75 131.22-23.34 131.61-23.79 132-24.24 132.24-24.55 132.49-24.85 132.53-24.9L132.53-24.9 142.35-25.59Q142.42-25.61 142.51-25.61 142.59-25.61 142.67-25.61L142.67-25.61Q143.08-25.61 143.08-25.39L143.08-25.39Q143.08-25.22 142.57-24.63L142.57-24.63 134.93-16.09Q134.41-15.53 133.72-14.78 133.02-14.04 132.17-13.13L132.17-13.13 135.73-8.89 141.88-2.27Q141.96-2.15 142.1-2.09 142.25-2.03 142.39-1.98 142.52-1.93 142.63-1.87 142.74-1.81 142.74-1.68L142.74-1.68Q142.74-1.59 142.7-1.54 142.67-1.49 142.47-1.34L142.47-1.34Q142.25-1.17 141.7-0.85 141.15-0.54 140.42-0.15 139.69 0.24 138.86 0.65 138.03 1.05 137.25 1.38 136.46 1.71 135.81 1.92 135.15 2.12 134.78 2.12L134.78 2.12Q134.49 2.12 134.21 1.98 133.93 1.83 133.58 1.44L133.58 1.44Q133.12 0.9 132.42 0.04 131.73-0.83 130.92-1.87 130.12-2.91 129.27-4.02 128.43-5.13 127.66-6.14 126.89-7.15 126.27-7.97 125.65-8.79 125.31-9.28L125.31-9.28Q125.19-9.16 125.06-9.09 124.94-9.03 124.83-8.94 124.72-8.84 124.65-8.7 124.57-8.57 124.57-8.33L124.57-8.33Q124.57-8.23 124.53-7.78 124.48-7.32 124.42-6.7 124.36-6.08 124.28-5.37 124.21-4.66 124.15-4.04 124.09-3.42 124.04-2.97 123.99-2.51 123.99-2.42L123.99-2.42Q123.99-2.25 124-2.14 124.01-2.03 124.01-1.93L124.01-1.93Q124.01-1.66 123.83-1.53 123.65-1.39 122.94-1.2L122.94-1.2 116.54 0.88Q116.27 0.98 115.83 1.12 115.4 1.27 114.98 1.27L114.98 1.27Q114.64 1.27 114.38 1.1 114.13 0.93 114.13 0.46L114.13 0.46 117.2-34.72Q117.2-34.84 117.18-34.95 117.15-35.06 117.15-35.18L117.15-35.18Q117.15-35.4 117.34-35.58 117.52-35.77 118.18-35.94L118.18-35.94 125.04-37.57Q125.31-37.62 125.75-37.79 126.19-37.96 126.6-37.96L126.6-37.96Q126.92-37.96 127.2-37.82 127.48-37.67 127.48-37.26L127.48-37.26Q127.48-37.21 127.47-37.16 127.46-37.11 127.46-37.06ZM177.01-14.43L177.01-32.71Q177.21-33.52 177.35-33.89 177.5-34.25 177.99-34.38L177.99-34.38 184.31-35.86Q184.6-35.96 184.95-35.96L184.95-35.96Q185.26-35.96 185.41-35.74 185.56-35.52 185.56-34.91L185.56-34.91Q185.41-34.33 185.31-33.12 185.21-31.91 185.17-30.47 185.12-29.03 185.09-27.58 185.07-26.12 185.07-25.05L185.07-25.05 185.07-23.71Q185.07-22.19 185.04-20.41 185.02-18.63 184.98-16.8 184.95-14.97 184.9-13.18 184.85-11.4 184.8-9.84L184.8-9.84 184.65-5.66Q184.63-5.54 184.63-5.44 184.63-5.35 184.63-5.25L184.63-5.25 184.63-4.88Q184.63-4.47 184.64-4.19 184.65-3.91 184.65-3.69L184.65-3.69Q184.65-3.44 184.62-3.25 184.58-3.05 184.43-2.87 184.29-2.69 184.03-2.49 183.77-2.29 183.33-2L183.33-2Q183.09-1.83 182.53-1.5 181.97-1.17 181.28-0.76 180.6-0.34 179.87 0.1 179.14 0.54 178.53 0.89 177.91 1.25 177.54 1.46 177.16 1.68 177.16 1.68L177.16 1.68 165.83-15.75 164.8-1.46Q164.78-1.27 164.72-1.05 164.66-0.83 164.39-0.71L164.39-0.71Q164.17-0.61 163.63-0.4 163.1-0.2 162.38 0.07 161.65 0.34 160.86 0.62 160.07 0.9 159.36 1.14 158.65 1.37 158.1 1.51 157.55 1.66 157.36 1.66L157.36 1.66Q156.99 1.66 156.75 1.46 156.5 1.27 156.5 0.76L156.5 0.76Q156.75-2.29 157.07-5.9 157.38-9.5 157.68-13.28 157.97-17.07 158.22-20.84 158.48-24.61 158.65-28L158.65-28Q158.65-28.1 158.35-28.65 158.04-29.2 157.66-29.85 157.28-30.49 156.98-31.07 156.67-31.64 156.67-31.79L156.67-31.79Q156.67-31.96 156.86-32.1 157.04-32.25 157.46-32.5L157.46-32.5 163.97-36.18Q164.05-36.18 164.18-36.21 164.32-36.23 164.41-36.23L164.41-36.23Q164.68-36.23 164.84-36.17 165-36.11 165.17-35.79L165.17-35.79 177.01-14.43ZM203.6-27.25L203.6-27.25Q205.92-27.25 207.81-26.38 209.7-25.51 211.05-24.13 212.41-22.75 213.14-21.04 213.87-19.34 213.87-17.63L213.87-17.63Q213.87-16.11 212.95-14.59 212.02-13.06 210.35-11.84 208.67-10.62 206.33-9.86 203.99-9.11 201.18-9.11L201.18-9.11Q199.71-9.11 198.1-9.4L198.1-9.4Q198.2-8.35 198.71-7.59 199.23-6.84 200.01-6.35 200.79-5.86 201.78-5.63 202.77-5.4 203.82-5.4L203.82-5.4Q204.99-5.4 206.07-5.6 207.16-5.81 208.16-6.15 209.16-6.49 210.09-6.91 211.02-7.32 211.85-7.74L211.85-7.74Q212.07-7.79 212.23-7.82 212.38-7.86 212.53-7.86L212.53-7.86Q212.53-7.86 212.52-7.47 212.51-7.08 212.51-6.37 212.51-5.66 212.49-4.66 212.48-3.66 212.46-2.44L212.46-2.44Q212.53-2.32 212.56-2.2 212.58-2.08 212.58-2L212.58-2Q212.58-1.71 212.04-1.37 211.51-1.03 210.64-0.66 209.77-0.29 208.66 0.05 207.55 0.39 206.4 0.67 205.26 0.95 204.18 1.11 203.11 1.27 202.3 1.27L202.3 1.27Q199.67 1.27 197.19 0.35 194.71-0.56 192.79-2.27 190.88-3.98 189.73-6.42 188.58-8.86 188.58-11.91L188.58-11.91Q188.58-15.11 189.68-17.91 190.78-20.7 192.77-22.78 194.76-24.85 197.52-26.05 200.28-27.25 203.6-27.25ZM203.3-20.75L203.3-20.75Q202.3-20.75 201.46-20.32 200.62-19.9 199.92-19.1 199.23-18.31 198.71-17.2 198.2-16.09 197.88-14.75L197.88-14.75Q200.4-15.19 202.06-15.67 203.72-16.16 204.72-16.66 205.72-17.16 206.13-17.66 206.55-18.16 206.55-18.63L206.55-18.63Q206.55-19.07 206.22-19.46 205.89-19.85 205.4-20.14 204.91-20.43 204.34-20.59 203.77-20.75 203.3-20.75ZM227.81-10.11L231.65-24.85Q231.72-25.12 232.06-25.2L232.06-25.2Q234.04-25.63 236.11-26.1 238.19-26.56 240.09-27.25L240.09-27.25Q240.43-27.25 240.43-27L240.43-27 242.92-10.35 247.59-27Q247.69-27.25 247.95-27.25L247.95-27.25Q248.03-27.25 248.05-27.23 248.08-27.22 248.15-27.22L248.15-27.22Q249.98-26.51 251.91-26.06 253.84-25.61 255.74-25.2L255.74-25.2Q256.21-25.1 256.21-24.66L256.21-24.66Q256.21-24.34 255.91-23.68L255.91-23.68 248.05-1.9Q247.86-1.49 247.71-1.21 247.56-0.93 247.42-0.77 247.27-0.61 247.1-0.52 246.93-0.44 246.68-0.39L246.68-0.39Q244.83 0 242.92 0.46 241.02 0.93 238.97 1.64L238.97 1.64Q238.92 1.64 238.9 1.65 238.87 1.66 238.85 1.66L238.85 1.66 238.68 1.66Q238.55 1.66 238.48 1.57 238.41 1.49 238.38 1.42L238.38 1.42Q238.11 0.37 237.77-1.2 237.43-2.76 237.04-4.66 236.65-6.57 236.21-8.74 235.77-10.91 235.31-13.21L235.31-13.21 232.21-2.29Q232.08-1.86 231.95-1.57 231.82-1.29 231.65-1.14 231.47-0.98 231.28-0.9 231.08-0.83 230.84-0.78L230.84-0.78Q228.98-0.42 227.08 0.06 225.18 0.54 223.12 1.25L223.12 1.25Q223.08 1.25 223.05 1.26 223.03 1.27 223 1.27L223 1.27 222.83 1.27Q222.71 1.27 222.62 1.18 222.54 1.1 222.54 1.03L222.54 1.03Q222.2-0.05 221.76-1.7 221.32-3.34 220.82-5.38 220.32-7.42 219.78-9.74 219.24-12.06 218.68-14.45 218.12-16.85 217.57-19.2 217.02-21.56 216.51-23.68L216.51-23.68Q216.34-24.07 216.31-24.33 216.29-24.58 216.29-24.76L216.29-24.76Q216.29-25.1 216.68-25.2L216.68-25.2Q218.58-25.61 220.63-26.06 222.69-26.51 224.52-27.22L224.52-27.22Q224.59-27.25 224.74-27.25L224.74-27.25Q225.05-27.25 225.08-27L225.08-27 227.81-10.11ZM268.63-16.5L268.63-16.5Q268.63-19.19 269.27-21.67 269.92-24.15 271.12-26.29 272.31-28.44 274.01-30.2 275.71-31.96 277.81-33.22 279.91-34.47 282.36-35.16 284.81-35.84 287.52-35.84L287.52-35.84Q289.67-35.84 291.3-35.56 292.92-35.28 294.13-34.85 295.34-34.42 296.15-33.91 296.97-33.4 297.51-32.93L297.51-32.93Q297.48-32.93 297.48-32.76L297.48-32.76Q297.48-32.4 297.55-31.42 297.61-30.44 297.69-29.25 297.78-28.05 297.84-26.82 297.9-25.59 297.9-24.68L297.9-24.68Q297.9-24.54 297.8-24.35 297.7-24.17 297.31-24.17L297.31-24.17Q297.09-24.17 296.78-24.24L296.78-24.24Q296.26-24.39 295.48-24.91 294.7-25.44 293.66-26.01 292.63-26.59 291.34-27.04 290.06-27.49 288.55-27.49L288.55-27.49Q286.55-27.49 284.91-26.7 283.28-25.9 282.13-24.51 280.98-23.12 280.35-21.2 279.71-19.29 279.71-17.02L279.71-17.02Q279.71-15.01 280.15-13.2 280.59-11.38 281.48-10.01 282.37-8.64 283.7-7.82 285.03-7.01 286.79-7.01L286.79-7.01Q288.18-7.01 289.26-7.1 290.33-7.2 291.26-7.42 292.19-7.64 293.08-8.01 293.97-8.37 294.99-8.94L294.99-8.94Q295.04-8.96 295.24-8.96L295.24-8.96Q295.41-8.96 295.47-8.83 295.53-8.69 295.53-8.28L295.53-8.28 295.53-5.35Q295.53-4.54 295.52-3.77 295.51-3 295.5-2.39 295.48-1.78 295.47-1.4 295.46-1.03 295.43-1.03L295.43-1.03Q294.31-0.32 293.03 0.13 291.75 0.59 290.39 0.84 289.04 1.1 287.67 1.18 286.3 1.27 285.03 1.27L285.03 1.27Q281.59 1.27 278.59-0.04 275.59-1.34 273.38-3.69 271.17-6.03 269.9-9.3 268.63-12.57 268.63-16.5ZM312.5 1.27L312.5 1.27Q309.05 1.27 306.45 0.15 303.85-0.98 302.1-2.84 300.34-4.71 299.46-7.14 298.58-9.57 298.58-12.18L298.58-12.18Q298.58-14.79 299.44-17.15 300.29-19.51 301.83-21.37 303.37-23.24 305.51-24.5 307.66-25.76 310.25-26.2L310.25-26.2Q310.64-26.22 310.64-26.37L310.64-26.37Q310.64-26.64 310.58-26.87 310.52-27.1 310.52-27.27L310.52-27.27Q310.52-27.54 310.62-27.64 310.71-27.73 310.84-27.73L310.84-27.73Q315.5-27.73 318.77-26.67 322.04-25.61 324.09-23.78 326.14-21.95 327.07-19.46 328-16.97 328-14.11L328-14.11Q328-10.47 326.78-7.62 325.56-4.76 323.45-2.78 321.33-0.81 318.51 0.23 315.7 1.27 312.5 1.27ZM307.98-12.45L307.98-12.45Q307.98-11.13 308.26-9.84 308.54-8.54 309.19-7.5 309.84-6.45 310.89-5.8 311.94-5.15 313.5-5.15L313.5-5.15Q314.62-5.2 315.46-5.65 316.31-6.1 316.92-6.82 317.53-7.54 317.93-8.45 318.33-9.35 318.56-10.31 318.8-11.28 318.89-12.21 318.99-13.13 318.99-13.89L318.99-13.89Q318.99-15.16 318.61-16.38 318.23-17.6 317.5-18.53 316.77-19.46 315.68-20.03 314.6-20.61 313.18-20.61L313.18-20.61Q311.72-20.61 310.71-19.74 309.71-18.87 309.12-17.6 308.52-16.33 308.25-14.93 307.98-13.53 307.98-12.45ZM357.32-0.78L351.39 0.88Q351.12 0.95 350.68 1.11 350.24 1.27 349.82 1.27L349.82 1.27Q349.48 1.27 349.23 1.1 348.97 0.93 348.97 0.51L348.97 0.51 348.97 0.37Q349.12-0.95 349.21-1.87 349.31-2.78 349.4-3.53 349.48-4.27 349.54-5.02 349.6-5.76 349.7-6.75 349.8-7.74 349.93-9.09 350.07-10.45 350.26-12.48L350.26-12.48Q350.39-13.72 350.48-15.01 350.58-16.31 350.58-17.41L350.58-17.41Q350.58-18.14 350.47-18.76 350.36-19.38 350.08-19.84 349.8-20.29 349.31-20.53 348.82-20.78 348.07-20.78L348.07-20.78Q347.5-20.78 346.52-20.53 345.53-20.29 344.55-19.73 343.57-19.17 342.82-18.25 342.06-17.33 341.96-15.99L341.96-15.99Q341.82-14.18 341.69-12.9 341.57-11.62 341.47-10.73 341.38-9.84 341.32-9.28 341.25-8.72 341.23-8.33L341.23-8.33Q341.21-8.23 341.16-7.79 341.11-7.35 341.05-6.74 340.99-6.13 340.92-5.44 340.86-4.76 340.8-4.15 340.74-3.54 340.7-3.1 340.67-2.66 340.67-2.56L340.67-2.56Q340.67-2.37 340.68-2.23 340.69-2.1 340.69-1.98L340.69-1.98Q340.69-1.78 340.51-1.65 340.33-1.51 339.69-1.34L339.69-1.34 333.22 0.88Q332.95 0.98 332.51 1.12 332.07 1.27 331.66 1.27L331.66 1.27Q331.32 1.27 331.06 1.1 330.8 0.93 330.8 0.51L330.8 0.51 333.03-24.44Q333.1-25.24 333.21-25.55 333.32-25.85 333.76-25.95L333.76-25.95Q335.98-26.39 338.32-26.84 340.67-27.29 342.89-28L342.89-28Q343.09-28 343.12-27.94 343.16-27.88 343.16-27.76L343.16-27.76Q343.16-27.71 343.15-27.61 343.13-27.51 343.07-27.17 343.01-26.83 342.9-26.14 342.79-25.44 342.6-24.19L342.6-24.19Q344.28-25.17 345.76-25.77 347.24-26.37 348.54-26.7 349.85-27.03 351-27.14 352.14-27.25 353.14-27.25L353.14-27.25Q356.59-27.25 358.15-25.16 359.71-23.07 359.71-18.9L359.71-18.9Q359.71-18.31 359.69-17.69 359.66-17.07 359.59-16.41L359.59-16.41 358.47-5.91Q358.34-4.88 358.32-4.02 358.3-3.15 358.3-2L358.3-2Q358.3-1.81 358.31-1.67 358.32-1.54 358.32-1.44L358.32-1.44Q358.32-1.22 358.14-1.1 357.95-0.98 357.32-0.78L357.32-0.78ZM381-27L381-27Q381.1-27.25 381.36-27.25L381.36-27.25Q381.41-27.25 381.46-27.23 381.51-27.22 381.56-27.22L381.56-27.22Q383.39-26.51 385.32-26.06 387.25-25.61 389.15-25.2L389.15-25.2Q389.62-25.1 389.62-24.66L389.62-24.66Q389.62-24.34 389.32-23.68L389.32-23.68 379.26-2.29Q379.07-1.86 378.92-1.59 378.78-1.32 378.63-1.15 378.48-0.98 378.31-0.9 378.14-0.83 377.9-0.78L377.9-0.78Q376.04-0.42 374.14 0.06 372.23 0.54 370.18 1.25L370.18 1.25Q370.13 1.25 370.11 1.26 370.08 1.27 370.06 1.27L370.06 1.27 369.89 1.27Q369.77 1.27 369.69 1.18 369.62 1.1 369.6 1.03L369.6 1.03Q369.23-0.02 368.75-1.68 368.28-3.34 367.72-5.4 367.16-7.45 366.54-9.77 365.93-12.08 365.3-14.48 364.66-16.87 364.04-19.23 363.42-21.58 362.83-23.68L362.83-23.68Q362.61-24.44 362.61-24.76L362.61-24.76Q362.61-25.1 363-25.2L363-25.2Q364.91-25.61 366.96-26.06 369.01-26.51 370.84-27.22L370.84-27.22Q370.91-27.25 371.06-27.25L371.06-27.25Q371.38-27.25 371.4-27L371.4-27 374.63-10.6Q374.75-10.89 375.04-11.66 375.33-12.43 375.75-13.5 376.16-14.58 376.66-15.87 377.16-17.16 377.69-18.51 378.21-19.85 378.73-21.18 379.24-22.51 379.69-23.66 380.14-24.8 380.49-25.68 380.83-26.56 381-27ZM404.65-27.25L404.65-27.25Q406.97-27.25 408.86-26.38 410.76-25.51 412.11-24.13 413.47-22.75 414.2-21.04 414.93-19.34 414.93-17.63L414.93-17.63Q414.93-16.11 414-14.59 413.08-13.06 411.4-11.84 409.73-10.62 407.39-9.86 405.04-9.11 402.24-9.11L402.24-9.11Q400.77-9.11 399.16-9.4L399.16-9.4Q399.26-8.35 399.77-7.59 400.28-6.84 401.06-6.35 401.84-5.86 402.83-5.63 403.82-5.4 404.87-5.4L404.87-5.4Q406.04-5.4 407.13-5.6 408.22-5.81 409.22-6.15 410.22-6.49 411.15-6.91 412.07-7.32 412.9-7.74L412.9-7.74Q413.12-7.79 413.28-7.82 413.44-7.86 413.59-7.86L413.59-7.86Q413.59-7.86 413.58-7.47 413.56-7.08 413.56-6.37 413.56-5.66 413.55-4.66 413.54-3.66 413.51-2.44L413.51-2.44Q413.59-2.32 413.61-2.2 413.64-2.08 413.64-2L413.64-2Q413.64-1.71 413.1-1.37 412.56-1.03 411.7-0.66 410.83-0.29 409.72 0.05 408.61 0.39 407.46 0.67 406.31 0.95 405.24 1.11 404.16 1.27 403.36 1.27L403.36 1.27Q400.72 1.27 398.24 0.35 395.77-0.56 393.85-2.27 391.93-3.98 390.79-6.42 389.64-8.86 389.64-11.91L389.64-11.91Q389.64-15.11 390.74-17.91 391.84-20.7 393.82-22.78 395.81-24.85 398.57-26.05 401.33-27.25 404.65-27.25ZM404.36-20.75L404.36-20.75Q403.36-20.75 402.52-20.32 401.67-19.9 400.98-19.1 400.28-18.31 399.77-17.2 399.26-16.09 398.94-14.75L398.94-14.75Q401.45-15.19 403.11-15.67 404.77-16.16 405.78-16.66 406.78-17.16 407.19-17.66 407.61-18.16 407.61-18.63L407.61-18.63Q407.61-19.07 407.28-19.46 406.95-19.85 406.46-20.14 405.97-20.43 405.4-20.59 404.82-20.75 404.36-20.75ZM439.46-27.44L437.95-19.87Q437.44-19.92 436.8-19.98 436.17-20.04 435.46-20.04L435.46-20.04Q434.39-20.04 433.28-19.86 432.16-19.68 431.21-19.14 430.26-18.6 429.58-17.66 428.89-16.72 428.7-15.23L428.7-15.23Q428.53-13.43 428.42-12.27 428.31-11.11 428.26-10.36 428.21-9.62 428.17-9.17 428.14-8.72 428.11-8.33L428.11-8.33Q428.11-8.23 428.08-7.79 428.04-7.35 427.97-6.76 427.89-6.18 427.83-5.49 427.77-4.81 427.7-4.22 427.62-3.64 427.59-3.2 427.55-2.76 427.55-2.66L427.55-2.66Q427.55-2.47 427.56-2.33 427.57-2.2 427.57-2.08L427.57-2.08Q427.57-1.88 427.39-1.75 427.21-1.61 426.57-1.44L426.57-1.44 420.1 0.88Q419.84 0.98 419.4 1.12 418.96 1.27 418.54 1.27L418.54 1.27Q418.2 1.27 417.94 1.1 417.69 0.93 417.69 0.51L417.69 0.51 419.79-23.68Q419.86-24.49 419.97-24.79 420.08-25.1 420.52-25.2L420.52-25.2Q422.74-25.63 425.11-26.09 427.48-26.54 429.7-27.25L429.7-27.25Q429.89-27.25 429.93-27.19 429.97-27.12 429.97-27L429.97-27Q429.97-26.95 429.96-26.86 429.94-26.76 429.88-26.42 429.82-26.07 429.71-25.38 429.6-24.68 429.41-23.44L429.41-23.44Q430.53-24.32 431.88-25.05 433.24-25.78 434.61-26.31 435.97-26.83 437.24-27.14 438.51-27.44 439.46-27.44L439.46-27.44ZM440.49-0.07L440.17-6.74Q440.17-6.76 440.16-6.77 440.15-6.79 440.15-6.81L440.15-6.81Q440.15-7.13 440.49-7.13L440.49-7.13Q440.71-7.13 440.88-6.96L440.88-6.96Q441.85-6.03 443.11-5.44 444.37-4.86 445.83-4.86L445.83-4.86Q446.22-4.86 446.74-4.94 447.25-5.03 447.71-5.22 448.18-5.42 448.48-5.75 448.79-6.08 448.79-6.57L448.79-6.57Q448.79-7.1 448.52-7.56 448.25-8.01 447.81-8.3L447.81-8.3Q447.57-8.47 446.96-8.9 446.35-9.33 445.65-9.81 444.96-10.3 444.33-10.74 443.71-11.18 443.47-11.38L443.47-11.38Q442.37-12.21 441.72-13.06 441.07-13.92 440.73-14.83 440.39-15.75 440.29-16.75 440.19-17.75 440.19-18.87L440.19-18.87Q440.19-20.58 441.1-22.09 442-23.61 443.48-24.76 444.96-25.9 446.84-26.57 448.71-27.25 450.67-27.25L450.67-27.25Q452.28-27.25 453.84-26.76 455.4-26.27 456.75-25.1L456.75-25.1Q456.87-23.56 456.92-22.07 456.97-20.58 457.06-18.95L457.06-18.95Q457.06-18.63 456.92-18.52 456.77-18.41 456.58-18.41L456.58-18.41Q456.41-18.41 456.28-18.53L456.28-18.53Q455.72-19.07 455.14-19.59 454.55-20.12 453.9-20.52 453.26-20.92 452.52-21.18 451.79-21.44 450.96-21.44L450.96-21.44Q450.45-21.44 449.94-21.35 449.42-21.26 449.01-21.03 448.59-20.8 448.34-20.41 448.08-20.02 448.08-19.41L448.08-19.41Q448.08-18.7 448.25-18.19 448.42-17.68 449.06-17.19L449.06-17.19 453.6-14.11Q454.84-13.26 455.61-12.44 456.38-11.62 456.82-10.82 457.26-10.01 457.42-9.22 457.58-8.42 457.58-7.64L457.58-7.64Q457.58-5.44 456.56-3.77 455.55-2.1 453.94-0.99 452.33 0.12 450.29 0.7 448.25 1.27 446.2 1.27L446.2 1.27Q444.64 1.27 443.19 0.94 441.73 0.61 440.49-0.07L440.49-0.07ZM488.51-27.66L485.99-4.91Q485.97-4.81 485.97-4.72 485.97-4.64 485.97-4.57L485.97-4.57Q485.97-3.96 486.16-3.55 486.36-3.15 486.59-2.89 486.82-2.64 487.02-2.48 487.21-2.32 487.21-2.2L487.21-2.2Q487.21-1.86 486.48-1.56L486.48-1.56 479.91 1.25Q479.89 1.27 479.74 1.27L479.74 1.27Q479.55 1.27 479.35 0.93 479.16 0.59 478.97 0.06 478.79-0.46 478.63-1.06 478.47-1.66 478.35-2.17L478.35-2.17Q476.81-0.39 475.03 0.44 473.25 1.27 471.49 1.27L471.49 1.27Q469.44 1.27 467.49 0.37 465.53-0.54 464.02-2.21 462.51-3.88 461.59-6.25 460.68-8.62 460.68-11.57L460.68-11.57Q460.68-15.06 461.69-17.94 462.7-20.83 464.44-22.9 466.17-24.98 468.48-26.11 470.78-27.25 473.37-27.25L473.37-27.25Q475.2-27.25 476.84-26.5 478.47-25.76 479.94-24.58L479.94-24.58Q480.08-25.32 480.11-25.76 480.13-26.2 480.22-26.44 480.3-26.68 480.55-26.77 480.79-26.86 481.35-26.9L481.35-26.9Q483.11-27.15 484.86-27.36 486.6-27.56 488.51-27.66L488.51-27.66ZM477.67-6.88L478.69-14.11Q478.94-15.5 479.02-16.74 479.11-17.97 479.16-18.99L479.16-18.99Q478.77-19.29 478.31-19.6 477.86-19.92 477.34-20.2 476.81-20.48 476.24-20.65 475.67-20.83 475.03-20.83L475.03-20.83Q473.71-20.83 472.82-19.97 471.93-19.12 471.38-17.87 470.83-16.63 470.6-15.23 470.37-13.84 470.37-12.77L470.37-12.77Q470.37-8.91 471.38-7.12 472.39-5.32 474.2-5.32L474.2-5.32Q474.93-5.32 475.84-5.74 476.74-6.15 477.67-6.88L477.67-6.88ZM509.23-18.82L504.69-18.82Q504.35-16.26 504.04-13.71 503.74-11.16 503.67-8.94L503.67-8.94Q503.67-7.98 503.81-7.35 503.96-6.71 504.24-6.35 504.52-5.98 504.91-5.82 505.3-5.66 505.79-5.66L505.79-5.66Q506.57-5.66 507.5-5.9 508.43-6.13 509.35-6.49L509.35-6.49Q509.65-6.62 509.85-6.68 510.06-6.74 510.21-6.74L510.21-6.74Q510.45-6.74 510.54-6.52 510.62-6.3 510.71-5.75 510.79-5.2 510.97-4.27 511.14-3.34 511.53-1.93L511.53-1.93Q511.55-1.81 511.56-1.72 511.58-1.64 511.58-1.56L511.58-1.56Q511.58-1.22 511.32-1.07 511.06-0.93 510.48-0.73L510.48-0.73Q509.48-0.39 508.37-0.04 507.25 0.32 506.17 0.61 505.08 0.9 504.08 1.09 503.08 1.27 502.32 1.27L502.32 1.27Q498.25 1.27 496.38-0.76 494.51-2.78 494.51-6.93L494.51-6.93Q494.51-7.64 494.56-8.39 494.61-9.13 494.68-9.94L494.68-9.94Q494.93-12.38 495.11-14.56 495.29-16.75 495.49-18.75L495.49-18.75 492.92-18.75Q491.61-18.75 491.02-18.86 490.43-18.97 490.43-19.31L490.43-19.31Q490.43-19.41 490.68-19.84 490.92-20.26 491.3-20.86 491.68-21.46 492.12-22.14 492.56-22.83 492.96-23.43 493.36-24.02 493.66-24.46 493.95-24.9 494.02-25L494.02-25 495.76-25Q495.98-26.86 496.11-28.11 496.24-29.37 496.33-30.2 496.41-31.03 496.49-31.48 496.56-31.93 496.65-32.15 496.73-32.37 496.87-32.43 497-32.5 497.22-32.54L497.22-32.54Q498.32-32.76 499.34-32.95 500.37-33.13 501.4-33.33 502.42-33.52 503.48-33.78 504.54-34.03 505.69-34.38L505.69-34.38Q505.77-34.38 505.79-34.39 505.81-34.4 505.89-34.4L505.89-34.4Q506.18-34.4 506.18-34.2L506.18-34.2 506.18-34.16Q506.06-32.81 505.8-30.42 505.55-28.03 505.23-25L505.23-25 511.77-25Q511.97-25 512.15-24.87 512.33-24.73 512.33-24.41L512.33-24.41Q512.33-24.29 512.04-23.54 511.75-22.78 511.21-21.56L511.21-21.56 510.33-19.58Q510.16-19.21 509.98-19.04 509.79-18.87 509.23-18.82L509.23-18.82ZM514.97-10.35L514.97-10.35Q515.28-13.7 515.6-16.97 515.92-20.24 516.16-23.68L516.16-23.68Q516.21-24.49 516.32-24.79 516.43-25.1 516.87-25.2L516.87-25.2Q518.95-25.61 521.22-26.06 523.49-26.51 525.61-27.22L525.61-27.22Q525.68-27.25 525.83-27.25L525.83-27.25Q526.1-27.25 526.1-27.05L526.1-27.05 523.9-3.27Q523.83-2.47 523.73-2.16 523.63-1.86 523.19-1.76L523.19-1.76Q521.12-1.12 519-0.34 516.87 0.44 514.5 1.25L514.5 1.25Q514.43 1.27 514.28 1.27L514.28 1.27Q514.02 1.27 514.02 1.03L514.02 1.03Q514.02 1 514.06 0.37 514.11-0.27 514.2-1.27 514.28-2.27 514.38-3.52 514.48-4.76 514.59-6.01 514.7-7.25 514.8-8.4 514.89-9.55 514.97-10.35ZM516.8-29.83L516.8-29.83Q516.87-30.88 516.91-31.45 516.94-32.01 516.97-32.29 516.99-32.57 516.99-32.64 516.99-32.71 517.01-32.75 517.02-32.79 517.03-32.9 517.04-33.01 517.07-33.36 517.09-33.72 517.14-34.4 517.19-35.08 517.29-36.28L517.29-36.28Q517.34-37.08 517.45-37.39 517.56-37.7 517.99-37.79L517.99-37.79Q520.07-38.21 522.34-38.66 524.61-39.11 526.73-39.82L526.73-39.82Q526.81-39.84 526.95-39.84L526.95-39.84Q527.03-39.7 527.15-39.65L527.15-39.65 527.22-39.6 526.69-32.91Q526.61-32.1 526.5-31.79 526.39-31.47 525.98-31.4L525.98-31.4Q523.9-31.01 521.78-30.54 519.65-30.08 517.29-29.61L517.29-29.61Q517.21-29.59 517.07-29.59L517.07-29.59Q516.8-29.59 516.8-29.83ZM542.7 1.27L542.7 1.27Q539.26 1.27 536.66 0.15 534.06-0.98 532.3-2.84 530.54-4.71 529.66-7.14 528.78-9.57 528.78-12.18L528.78-12.18Q528.78-14.79 529.64-17.15 530.49-19.51 532.03-21.37 533.57-23.24 535.72-24.5 537.87-25.76 540.45-26.2L540.45-26.2Q540.84-26.22 540.84-26.37L540.84-26.37Q540.84-26.64 540.78-26.87 540.72-27.1 540.72-27.27L540.72-27.27Q540.72-27.54 540.82-27.64 540.92-27.73 541.04-27.73L541.04-27.73Q545.7-27.73 548.97-26.67 552.24-25.61 554.3-23.78 556.35-21.95 557.27-19.46 558.2-16.97 558.2-14.11L558.2-14.11Q558.2-10.47 556.98-7.62 555.76-4.76 553.65-2.78 551.54-0.81 548.72 0.23 545.9 1.27 542.7 1.27ZM538.18-12.45L538.18-12.45Q538.18-11.13 538.46-9.84 538.74-8.54 539.39-7.5 540.04-6.45 541.09-5.8 542.14-5.15 543.7-5.15L543.7-5.15Q544.82-5.2 545.67-5.65 546.51-6.1 547.12-6.82 547.73-7.54 548.13-8.45 548.53-9.35 548.77-10.31 549-11.28 549.1-12.21 549.19-13.13 549.19-13.89L549.19-13.89Q549.19-15.16 548.81-16.38 548.44-17.6 547.7-18.53 546.97-19.46 545.89-20.03 544.8-20.61 543.38-20.61L543.38-20.61Q541.92-20.61 540.92-19.74 539.92-18.87 539.32-17.6 538.72-16.33 538.45-14.93 538.18-13.53 538.18-12.45ZM587.52-0.78L581.59 0.88Q581.32 0.95 580.88 1.11 580.44 1.27 580.03 1.27L580.03 1.27Q579.68 1.27 579.43 1.1 579.17 0.93 579.17 0.51L579.17 0.51 579.17 0.37Q579.32-0.95 579.42-1.87 579.51-2.78 579.6-3.53 579.68-4.27 579.74-5.02 579.81-5.76 579.9-6.75 580-7.74 580.14-9.09 580.27-10.45 580.47-12.48L580.47-12.48Q580.59-13.72 580.68-15.01 580.78-16.31 580.78-17.41L580.78-17.41Q580.78-18.14 580.67-18.76 580.56-19.38 580.28-19.84 580-20.29 579.51-20.53 579.02-20.78 578.27-20.78L578.27-20.78Q577.71-20.78 576.72-20.53 575.73-20.29 574.75-19.73 573.78-19.17 573.02-18.25 572.26-17.33 572.16-15.99L572.16-15.99Q572.02-14.18 571.9-12.9 571.77-11.62 571.68-10.73 571.58-9.84 571.52-9.28 571.46-8.72 571.43-8.33L571.43-8.33Q571.41-8.23 571.36-7.79 571.31-7.35 571.25-6.74 571.19-6.13 571.13-5.44 571.07-4.76 571-4.15 570.94-3.54 570.91-3.1 570.87-2.66 570.87-2.56L570.87-2.56Q570.87-2.37 570.88-2.23 570.89-2.1 570.89-1.98L570.89-1.98Q570.89-1.78 570.71-1.65 570.53-1.51 569.89-1.34L569.89-1.34 563.42 0.88Q563.16 0.98 562.72 1.12 562.28 1.27 561.86 1.27L561.86 1.27Q561.52 1.27 561.26 1.1 561.01 0.93 561.01 0.51L561.01 0.51 563.23-24.44Q563.3-25.24 563.41-25.55 563.52-25.85 563.96-25.95L563.96-25.95Q566.18-26.39 568.53-26.84 570.87-27.29 573.09-28L573.09-28Q573.29-28 573.32-27.94 573.36-27.88 573.36-27.76L573.36-27.76Q573.36-27.71 573.35-27.61 573.34-27.51 573.28-27.17 573.21-26.83 573.1-26.14 572.99-25.44 572.8-24.19L572.8-24.19Q574.48-25.17 575.96-25.77 577.44-26.37 578.74-26.7 580.05-27.03 581.2-27.14 582.34-27.25 583.35-27.25L583.35-27.25Q586.79-27.25 588.35-25.16 589.91-23.07 589.91-18.9L589.91-18.9Q589.91-18.31 589.89-17.69 589.86-17.07 589.79-16.41L589.79-16.41 588.67-5.91Q588.55-4.88 588.52-4.02 588.5-3.15 588.5-2L588.5-2Q588.5-1.81 588.51-1.67 588.52-1.54 588.52-1.44L588.52-1.44Q588.52-1.22 588.34-1.1 588.16-0.98 587.52-0.78L587.52-0.78ZM594.04-0.07L593.72-6.74Q593.72-6.76 593.71-6.77 593.69-6.79 593.69-6.81L593.69-6.81Q593.69-7.13 594.04-7.13L594.04-7.13Q594.26-7.13 594.43-6.96L594.43-6.96Q595.4-6.03 596.66-5.44 597.92-4.86 599.38-4.86L599.38-4.86Q599.77-4.86 600.29-4.94 600.8-5.03 601.26-5.22 601.73-5.42 602.03-5.75 602.34-6.08 602.34-6.57L602.34-6.57Q602.34-7.1 602.07-7.56 601.8-8.01 601.36-8.3L601.36-8.3Q601.12-8.47 600.51-8.9 599.9-9.33 599.2-9.81 598.5-10.3 597.88-10.74 597.26-11.18 597.02-11.38L597.02-11.38Q595.92-12.21 595.27-13.06 594.62-13.92 594.28-14.83 593.94-15.75 593.84-16.75 593.74-17.75 593.74-18.87L593.74-18.87Q593.74-20.58 594.65-22.09 595.55-23.61 597.03-24.76 598.5-25.9 600.38-26.57 602.26-27.25 604.22-27.25L604.22-27.25Q605.83-27.25 607.39-26.76 608.95-26.27 610.3-25.1L610.3-25.1Q610.42-23.56 610.47-22.07 610.52-20.58 610.61-18.95L610.61-18.95Q610.61-18.63 610.47-18.52 610.32-18.41 610.13-18.41L610.13-18.41Q609.95-18.41 609.83-18.53L609.83-18.53Q609.27-19.07 608.69-19.59 608.1-20.12 607.45-20.52 606.81-20.92 606.07-21.18 605.34-21.44 604.51-21.44L604.51-21.44Q604-21.44 603.49-21.35 602.97-21.26 602.56-21.03 602.14-20.8 601.89-20.41 601.63-20.02 601.63-19.41L601.63-19.41Q601.63-18.7 601.8-18.19 601.97-17.68 602.61-17.19L602.61-17.19 607.15-14.11Q608.39-13.26 609.16-12.44 609.93-11.62 610.37-10.82 610.81-10.01 610.97-9.22 611.13-8.42 611.13-7.64L611.13-7.64Q611.13-5.44 610.11-3.77 609.1-2.1 607.49-0.99 605.88 0.12 603.84 0.7 601.8 1.27 599.75 1.27L599.75 1.27Q598.19 1.27 596.73 0.94 595.28 0.61 594.04-0.07L594.04-0.07Z" opacity="1" transform="matrix(1,0,0,1,0,0)" fill="#5b78df" class="slogan-text-1" data-fill-palette-color="secondary" id="text-1"></path></svg></g></svg></g></svg></g></svg></g><g><svg viewBox="0 0 245.65351679999995 317.3869733310532" height="317.3869733310532" width="245.65351679999995"><g><svg xmlns="http://www.w3.org/2000/svg" xmlns:xlink="http://www.w3.org/1999/xlink" version="1.1" x="0" y="0" viewBox="26.562 7.386 61.282 79.177" enable-background="new 0 0 100 100" xml:space="preserve" height="317.3869733310532" width="245.65351679999995" class="icon-icon-0" data-fill-palette-color="accent" id="icon-0"><path fill="#5b78df" d="M62.188 70.625C62.188 64.302 64.865 59.395 67.698 54.199 70.521 49.026 73.438 43.678 73.438 36.875 73.438 23.951 62.924 13.437 50 13.437S26.562 23.951 26.562 36.875C26.562 43.677 29.479 49.026 32.302 54.199 35.135 59.395 37.812 64.303 37.812 70.625 37.812 71.143 38.231 71.563 38.75 71.563H61.25A0.94 0.94 0 0 0 62.188 70.625M33.947 53.301C31.114 48.105 28.437 43.197 28.437 36.875 28.437 24.986 38.11 15.313 49.999 15.313S71.561 24.986 71.561 36.875C71.561 43.198 68.884 48.105 66.051 53.301 63.91 57.223 61.739 61.257 60.801 65.937H39.197C38.259 61.257 36.088 57.224 33.947 53.301M39.669 69.688A23 23 0 0 0 39.501 67.813H60.499A23 23 0 0 0 60.331 69.688z" data-fill-palette-color="accent"></path><path fill="#5b78df" d="M59.375 73.438H40.625A0.937 0.937 0 1 0 40.625 75.314H59.375A0.937 0.937 0 1 0 59.375 73.438" data-fill-palette-color="accent"></path><path fill="#5b78df" d="M60.312 78.125A0.937 0.937 0 0 0 59.374 77.187H40.624A0.937 0.937 0 1 0 40.624 79.063H59.374A0.94 0.94 0 0 0 60.312 78.125" data-fill-palette-color="accent"></path><path fill="#5b78df" d="M42.5 80.879A0.937 0.937 0 0 0 41.562 81.817C41.562 86.563 47.734 86.563 50.058 86.563S58.554 86.563 58.554 81.817A0.937 0.937 0 0 0 57.616 80.879zM50.059 84.688C45.525 84.688 44.038 83.811 43.603 82.754H56.515C56.079 83.811 54.592 84.688 50.059 84.688" data-fill-palette-color="accent"></path><path fill="#5b78df" d="M50 49.062A6.57 6.57 0 0 0 56.562 42.5 0.937 0.937 0 1 0 54.686 42.5C54.686 45.085 52.584 47.188 49.998 47.188S45.31 45.086 45.31 42.5A0.937 0.937 0 1 0 43.434 42.5C43.438 46.118 46.382 49.062 50 49.062" data-fill-palette-color="accent"></path><path fill="#5b78df" d="M42.5 37.812A0.937 0.937 0 1 0 42.5 35.936H38.75A0.937 0.937 0 1 0 38.75 37.812z" data-fill-palette-color="accent"></path><path fill="#5b78df" d="M57.5 37.812H61.25A0.937 0.937 0 1 0 61.25 35.936H57.5A0.937 0.937 0 1 0 57.5 37.812" data-fill-palette-color="accent"></path><polygon fill="#5b78df" points="78.33,9.797 68.787,9.761 68.779,12.489 73.438,12.505 68.761,16.482 68.754,19.302 78.295,19.339   78.305,16.611 73.535,16.592 78.319,12.524 " data-fill-palette-color="accent"></polygon><polygon fill="#5b78df" points="87.844,7.415 80.712,7.386 80.707,9.426 84.189,9.437 80.696,12.41 80.687,14.516 87.818,14.543   87.826,12.505 84.261,12.491 87.833,9.451 " data-fill-palette-color="accent"></polygon></svg></g></svg></g></svg></g><defs></defs></svg><rect width="395.52" height="187.21380450097877" fill="none" stroke="none" visibility="hidden"></rect></g></svg></g></svg>